<?xml version="1.0" encoding="UTF-8" standalone="no"?>
<svg
   width="100%"
   height="100%"
   viewBox="0 0 32 32"
   version="1.1"
   xml:space="preserve"
   style="fill-rule:evenodd;clip-rule:evenodd;stroke-linecap:round;stroke-linejoin:round;"
   id="svg1"
   sodipodi:docname="favicon.svg"
   inkscape:version="1.3.2 (091e20e, 2023-11-25)"
   inkscape:export-filename="favicon-32x32.png"
   inkscape:export-xdpi="96"
   inkscape:export-ydpi="96"
   xmlns:inkscape="http://www.inkscape.org/namespaces/inkscape"
   xmlns:sodipodi="http://sodipodi.sourceforge.net/DTD/sodipodi-0.dtd"
   xmlns="http://www.w3.org/2000/svg"
   xmlns:svg="http://www.w3.org/2000/svg"><sodipodi:namedview
   id="namedview1"
   pagecolor="#ffffff"
   bordercolor="#000000"
   borderopacity="0.25"
   inkscape:showpageshadow="2"
   inkscape:pageopacity="0.0"
   inkscape:pagecheckerboard="0"
   inkscape:deskcolor="#d1d1d1"
   inkscape:zoom="7.375"
   inkscape:cx="9.4915254"
   inkscape:cy="12.813559"
   inkscape:window-width="1512"
   inkscape:window-height="832"
   inkscape:window-x="0"
   inkscape:window-y="38"
   inkscape:window-maximized="0"
   inkscape:current-layer="svg1" />
<defs
   id="defs1">
  <style
   type="text/css"
   id="style1"><![CDATA[
    #logo {
      fill-rule: nonzero;
    }
    #logo-teeth {
      stroke: #000000;
      stroke-width: 0.92px;
    }
    @media (prefers-color-scheme: dark) {
      #logo {
        fill: #FFFFFF;
        fill-rule: nonzero;
      }
      #logo-teeth {
        fill: #FFFFFF;
        stroke: #FFFFFF;
        stroke-width: 0.92px;
      }
    }
  ]]></style>
</defs>
<path
   id="logo"
   d="M 15.992188 1.5390625 C 15.767975 1.5390625 15.545974 1.5464816 15.324219 1.5566406 L 14.800781 2.4042969 C 14.704897 2.4127604 14.609004 2.4211696 14.513672 2.4316406 L 13.832031 1.703125 C 13.387505 1.7701215 12.949969 1.8581734 12.519531 1.9648438 L 12.167969 2.9042969 C 12.0787 2.9306839 11.988911 2.9562059 11.900391 2.984375 L 11.085938 2.4003906 C 10.663535 2.5533899 10.250838 2.7257592 9.8476562 2.9160156 L 9.6835938 3.9160156 C 9.6054844 3.9572207 9.5264438 3.9963956 9.4492188 4.0390625 L 8.5292969 3.6210938 C 8.143447 3.8546535 7.7714445 4.1055607 7.4101562 4.3730469 L 7.4472656 5.3886719 C 7.3813805 5.4419381 7.3148816 5.4943785 7.25 5.5488281 L 6.2617188 5.3164062 C 5.9297266 5.6190904 5.6112763 5.9375403 5.3085938 6.2695312 L 5.5410156 7.2597656 C 5.4868388 7.3243056 5.4338652 7.3895447 5.3808594 7.4550781 L 4.3652344 7.4179688 C 4.0977379 7.7792717 3.8468519 8.1512527 3.6132812 8.5371094 L 4.03125 9.4570312 C 3.9884777 9.5344399 3.9475534 9.6131088 3.90625 9.6914062 L 2.9082031 9.8535156 C 2.7176363 10.257228 2.5438395 10.67078 2.390625 11.09375 L 2.9746094 11.908203 C 2.9463692 11.9969 2.9209822 12.086333 2.8945312 12.175781 L 1.9570312 12.527344 C 1.8503627 12.957857 1.7622993 13.395261 1.6953125 13.839844 L 2.421875 14.521484 C 2.4114223 14.616647 2.4029837 14.712879 2.3945312 14.808594 L 1.5488281 15.332031 C 1.5386146 15.554378 1.53125 15.777142 1.53125 16.001953 C 1.53125 16.227391 1.5385507 16.450868 1.5488281 16.673828 L 2.3945312 17.197266 C 2.4029583 17.292412 2.4114708 17.38782 2.421875 17.482422 L 1.6933594 18.162109 C 1.7604935 18.607896 1.849982 19.044917 1.9570312 19.476562 L 2.8945312 19.828125 C 2.9209271 19.917362 2.9464323 20.007213 2.9746094 20.095703 L 2.3925781 20.908203 C 2.545984 21.331671 2.7173476 21.746221 2.9082031 22.150391 L 3.90625 22.3125 C 3.9475024 22.390687 3.9885326 22.469574 4.03125 22.546875 L 3.9863281 22.644531 L 16.318359 22.644531 L 16.318359 19.345703 C 16.318359 19.248703 16.243719 19.226562 16.136719 19.226562 L 13.337891 19.226562 L 13.341797 17.082031 L 16.367188 17.082031 C 16.642187 17.082031 17.843563 17.161267 18.226562 18.697266 C 18.345562 19.168265 18.611969 20.703313 18.792969 21.195312 C 18.925287 21.600353 19.356365 22.300906 19.884766 22.644531 L 28 22.644531 L 27.955078 22.546875 C 27.997791 22.469574 28.03883 22.390687 28.080078 22.3125 L 29.078125 22.150391 C 29.268993 21.746204 29.44229 21.331689 29.595703 20.908203 L 29.011719 20.095703 C 29.039892 20.007213 29.065404 19.917362 29.091797 19.828125 L 30.029297 19.476562 C 30.136347 19.044921 30.225834 18.607892 30.292969 18.162109 L 29.564453 17.482422 C 29.574856 17.38782 29.583371 17.292412 29.591797 17.197266 L 30.4375 16.673828 C 30.447777 16.450868 30.455078 16.227391 30.455078 16.001953 C 30.455078 15.777142 30.447718 15.554378 30.4375 15.332031 L 29.591797 14.808594 C 29.583346 14.712879 29.574904 14.616647 29.564453 14.521484 L 30.292969 13.841797 C 30.225912 13.39648 30.136179 12.958548 30.029297 12.527344 L 29.091797 12.175781 C 29.065349 12.086333 29.039955 11.9969 29.011719 11.908203 L 29.595703 11.095703 C 29.442276 10.672128 29.269016 10.257781 29.078125 9.8535156 L 28.080078 9.6914062 C 28.038779 9.6131088 27.997846 9.5344399 27.955078 9.4570312 L 28.373047 8.5371094 C 28.139394 8.1512314 27.886723 7.7792901 27.619141 7.4179688 L 26.605469 7.4550781 C 26.552467 7.3895447 26.499486 7.3243056 26.445312 7.2597656 L 26.677734 6.2714844 C 26.374438 5.9387655 26.057329 5.6197021 25.724609 5.3164062 L 24.736328 5.5488281 C 24.671449 5.4943785 24.604946 5.4419381 24.539062 5.3886719 L 24.576172 4.3730469 C 24.214817 4.1055442 23.840983 3.8546657 23.455078 3.6210938 L 22.537109 4.0390625 C 22.459884 3.9963956 22.380845 3.9572207 22.302734 3.9160156 L 22.140625 2.9160156 C 21.736973 2.7254806 21.323289 2.5535798 20.900391 2.4003906 L 20.087891 2.984375 C 19.999376 2.9561957 19.909576 2.9306944 19.820312 2.9042969 L 19.46875 1.9648438 C 19.03826 1.8580786 18.600812 1.7701978 18.15625 1.703125 L 17.474609 2.4316406 C 17.379269 2.4211558 17.283394 2.4127742 17.1875 2.4042969 L 16.662109 1.5566406 C 16.440339 1.5464757 16.216409 1.5390625 15.992188 1.5390625 z M 15.943359 2.8242188 L 15.972656 2.8242188 C 16.483656 2.8372187 16.896484 3.2633911 16.896484 3.7753906 C 16.896484 4.2973901 16.465359 4.7285156 15.943359 4.7285156 C 15.42136 4.7285156 14.992187 4.2973901 14.992188 3.7753906 C 14.992188 3.2533911 15.42136 2.8242188 15.943359 2.8242188 z M 13.820312 4.390625 L 15.287109 5.9277344 C 15.617109 6.273734 16.164766 6.2880778 16.509766 5.9550781 L 18.150391 4.390625 C 21.529387 5.0236244 24.463017 7.1136124 26.166016 10.099609 L 25.042969 12.632812 C 24.849969 13.070812 25.048422 13.584297 25.482422 13.779297 L 27.642578 14.738281 C 27.709578 15.413281 27.718969 16.093532 27.667969 16.769531 L 26.466797 16.769531 C 26.346797 16.769531 26.296875 16.848844 26.296875 16.964844 L 26.296875 17.515625 C 26.296875 18.812624 25.565827 19.097969 24.923828 19.167969 C 24.311829 19.237969 23.636781 18.910109 23.550781 18.537109 C 23.189782 16.508111 22.588624 16.078124 21.640625 15.328125 C 22.818624 14.582126 24.042969 13.478905 24.042969 12.003906 C 24.042969 10.409908 22.950031 9.4051089 22.207031 8.9121094 C 21.161032 8.2241101 20.003406 8.0878906 19.691406 8.0878906 L 7.2714844 8.0878906 C 8.9884827 6.1698925 11.290315 4.8686245 13.820312 4.390625 z M 4.5996094 11.433594 L 4.6289062 11.433594 C 5.1399057 11.448594 5.5527344 11.873766 5.5527344 12.384766 C 5.5527344 12.906765 5.1216089 13.337891 4.5996094 13.337891 C 4.0776099 13.337891 3.6484375 12.906765 3.6484375 12.384766 C 3.6484375 11.862766 4.0776099 11.433594 4.5996094 11.433594 z M 27.285156 11.476562 C 27.295156 11.476562 27.3035 11.475563 27.3125 11.476562 C 27.823499 11.491562 28.236328 11.916735 28.236328 12.427734 C 28.236328 12.949734 27.807156 13.380859 27.285156 13.380859 C 26.763157 13.380859 26.333984 12.949734 26.333984 12.427734 C 26.333984 11.905735 26.763157 11.476562 27.285156 11.476562 z M 6.421875 11.630859 L 8.078125 11.630859 L 8.078125 19.107422 L 4.7324219 19.107422 C 4.3184223 17.655423 4.1895627 16.136717 4.3515625 14.636719 L 6.4023438 13.724609 C 6.8403433 13.52961 7.0397498 13.018078 6.84375 12.580078 L 6.421875 11.630859 z M 13.341797 11.708984 L 17.289062 11.708984 C 17.494062 11.708984 18.730469 11.944095 18.730469 12.871094 C 18.730469 13.639093 17.783905 13.914062 17.003906 13.914062 L 13.337891 13.914062 L 13.341797 11.708984 z " /><g
   id="text1"
   style="font-family:'Arial Black';-inkscape-font-specification:'Arial Black, ';fill:#b7410e"
   aria-label="CWB"><path
     d="m 7.4112155,28.083456 2.3261719,0.703125 q -0.234375,0.978516 -0.7382812,1.634766 -0.5039063,0.65625 -1.2539063,0.990234 -0.7441406,0.333984 -1.8984375,0.333984 -1.4003906,0 -2.2910156,-0.404296 -0.8847656,-0.410157 -1.5292969,-1.435547 -0.6445312,-1.025391 -0.6445312,-2.625 0,-2.132813 1.1308593,-3.275391 1.1367188,-1.148437 3.2109375,-1.148437 1.6230469,0 2.5488282,0.65625 0.9316406,0.65625 1.3828125,2.015625 l -2.34375,0.521484 Q 7.1885593,25.657675 7.0537937,25.476034 6.8311374,25.171347 6.5088718,25.007284 6.1866062,24.843222 5.7881687,24.843222 q -0.9023438,0 -1.3828125,0.726562 -0.3632813,0.539063 -0.3632813,1.69336 0,1.429687 0.4335938,1.96289 0.4335937,0.527344 1.21875,0.527344 0.7617187,0 1.1484375,-0.427734 0.3925781,-0.427735 0.5683593,-1.242188 z"
     id="path3" /><path
     style="fill:#e37444"
     d="m 10.141684,23.003378 h 2.519532 l 0.908203,4.798828 1.324218,-4.798828 h 2.513672 l 1.330078,4.798828 0.908204,-4.798828 h 2.507812 l -1.892578,8.589844 h -2.601563 l -1.505859,-5.408203 -1.5,5.408203 h -2.601562 z"
     id="path4" /><path
     style="fill:#963409"
     d="m 23.032309,23.003378 h 4.96875 q 1.242188,0 1.904297,0.615234 0.667969,0.615235 0.667969,1.523438 0,0.761719 -0.474609,1.30664 -0.316407,0.363282 -0.925782,0.574219 0.925782,0.222656 1.359375,0.767578 0.439453,0.539063 0.439453,1.359375 0,0.667969 -0.310546,1.201172 -0.310547,0.533203 -0.84961,0.84375 -0.333984,0.19336 -1.007812,0.28125 -0.896485,0.117188 -1.189453,0.117188 h -4.582032 z m 2.677735,3.369141 h 1.154297 q 0.621093,0 0.861328,-0.210938 0.246093,-0.216797 0.246093,-0.621094 0,-0.375 -0.246093,-0.585937 -0.240235,-0.210938 -0.84375,-0.210938 h -1.171875 z m 0,3.375 h 1.353515 q 0.685547,0 0.966797,-0.240235 0.28125,-0.246094 0.28125,-0.65625 0,-0.380859 -0.28125,-0.609375 -0.27539,-0.234375 -0.972656,-0.234375 h -1.347656 z"
     id="path5" /></g></svg>
